<svg width="45" height="50" viewBox="0 0 45 50" fill="none" xmlns="http://www.w3.org/2000/svg">
<path d="M20.7259 21.3125C21.5144 21.3125 22.1812 21.01 22.7264 20.405C23.2716 19.8 23.5434 19.0608 23.5419 18.1875C23.5404 17.3142 23.2686 16.5742 22.7264 15.9675C22.1842 15.3608 21.5174 15.0592 20.7259 15.0625C19.9344 15.0658 19.2683 15.3683 18.7277 15.97C18.187 16.5717 17.9144 17.3108 17.9099 18.1875C17.9054 19.0642 18.178 19.8042 18.7277 20.4075C19.2773 21.0108 19.9434 21.3125 20.7259 21.3125ZM41.7334 50C40.1564 50 38.035 49.2708 35.3692 47.8125C32.7034 46.3542 29.8498 44.375 26.8085 41.875C26.0951 42.0833 25.3727 42.24 24.6413 42.345C23.9099 42.45 23.168 42.5017 22.4155 42.5C18.0225 42.5 14.3054 40.8125 11.2641 37.4375C8.22278 34.0625 6.70213 29.9375 6.70213 25.0625C6.70213 24.2292 6.75845 23.3958 6.87109 22.5625C6.98373 21.7292 7.13392 20.9167 7.32165 20.125C5.10638 16.75 3.33267 13.5942 2.0005 10.6575C0.668335 7.72083 0.00150188 5.37667 0 3.625C0 2.5 0.281602 1.615 0.844806 0.97C1.40801 0.325 2.17772 0.00166667 3.15394 0C4.01752 0 5.0786 0.270833 6.33717 0.8125C7.59574 1.35417 9.29437 2.29167 11.433 3.625C11.9587 3.95833 12.3064 4.46917 12.4761 5.1575C12.6458 5.84583 12.5797 6.48083 12.2778 7.0625C11.976 7.64417 11.5254 8.03 10.9262 8.22C10.3269 8.41 9.7637 8.33667 9.23655 8C8.52315 7.54167 7.82854 7.14583 7.15269 6.8125C6.47685 6.47917 5.76345 6.125 5.01252 5.75C5.68836 7.33333 6.41151 8.875 7.18198 10.375C7.95244 11.875 8.76871 13.3542 9.63079 14.8125C11.0576 12.5625 12.8786 10.7917 15.0939 9.5C17.3091 8.20833 19.7497 7.5625 22.4155 7.5625C26.8085 7.5625 30.5354 9.26083 33.5962 12.6575C36.6571 16.0542 38.1867 20.1892 38.1852 25.0625C38.1852 28.0208 37.5935 30.7292 36.41 33.1875C35.2265 35.6458 33.6218 37.6667 31.5957 39.25C32.9099 40.2083 34.2526 41.125 35.6238 42C36.995 42.875 38.3932 43.6667 39.8185 44.375C39.5182 43.5833 39.2088 42.8125 38.8904 42.0625C38.572 41.3125 38.2055 40.5417 37.791 39.75C37.4906 39.1667 37.4245 38.5317 37.5927 37.845C37.761 37.1583 38.1086 36.6475 38.6358 36.3125C39.163 35.9775 39.7359 35.905 40.3547 36.095C40.9735 36.285 41.433 36.67 41.7334 37.25C43.01 39.75 43.8736 41.6567 44.3242 42.97C44.7747 44.2833 45 45.4183 45 46.375C45 47.5833 44.6996 48.49 44.0989 49.095C43.4981 49.7 42.7096 50.0017 41.7334 50ZM26.3579 32.5625C26.9962 32.5625 27.5317 32.3225 27.9642 31.8425C28.3967 31.3625 28.6123 30.7692 28.6108 30.0625C28.6093 29.3558 28.3937 28.7625 27.9642 28.2825C27.5347 27.8025 26.9993 27.5625 26.3579 27.5625C25.7166 27.5625 25.182 27.8025 24.7539 28.2825C24.3259 28.7625 24.1096 29.3558 24.1051 30.0625C24.1006 30.7692 24.3169 31.3633 24.7539 31.845C25.191 32.3267 25.7257 32.5658 26.3579 32.5625ZM29.174 23.8125C29.6621 23.8125 30.0661 23.635 30.386 23.28C30.7059 22.925 30.8651 22.4775 30.8636 21.9375C30.8621 21.3975 30.7029 20.95 30.386 20.595C30.0691 20.24 29.6651 20.0625 29.174 20.0625C28.6829 20.0625 28.2796 20.24 27.9642 20.595C27.6488 20.95 27.4889 21.3975 27.4844 21.9375C27.4799 22.4775 27.6398 22.9258 27.9642 23.2825C28.2886 23.6392 28.6919 23.8158 29.174 23.8125Z" fill="#FF3CAC"/>
</svg>
