<svg width="24" height="24" viewBox="0 0 24 24" fill="none" xmlns="http://www.w3.org/2000/svg">
<path d="M9.83 7.11C12.068 4.587 15.55 3.5 18.75 3.5C18.9489 3.5 19.1397 3.57902 19.2803 3.71967C19.421 3.86032 19.5 4.05109 19.5 4.25C19.5 7.45 18.413 10.932 15.89 13.17C15.829 14.186 15.515 15.203 15.066 16.096C14.566 17.09 13.871 17.983 13.093 18.574C12.332 19.152 11.348 19.537 10.376 19.175C9.456 18.832 8.836 17.925 8.476 16.637L6.363 14.523C5.075 14.164 4.168 13.544 3.825 12.624C3.463 11.652 3.848 10.668 4.426 9.907C5.017 9.129 5.91 8.434 6.904 7.934C7.797 7.485 8.814 7.171 9.829 7.111M8.5 8.892C8.18394 8.99756 7.87583 9.12555 7.578 9.275C6.742 9.696 6.045 10.257 5.621 10.815C5.184 11.391 5.128 11.825 5.231 12.101C5.314 12.327 5.583 12.658 6.325 12.937C6.494 12.558 6.737 12.034 7.042 11.433C7.43 10.67 7.924 9.772 8.5 8.892ZM10.064 16.677C10.342 17.419 10.674 17.687 10.9 17.772C11.175 17.874 11.61 17.818 12.186 17.382C12.744 16.957 13.305 16.26 13.726 15.424C13.8773 15.1233 14.005 14.816 14.109 14.502C13.2893 15.0336 12.4414 15.5203 11.569 15.96C10.967 16.265 10.443 16.508 10.064 16.677ZM4.035 16.005C4.43809 15.6683 4.95076 15.4912 5.47574 15.5075C6.00071 15.5237 6.50147 15.732 6.883 16.093L6.892 16.103C7.691 16.893 7.678 18.157 6.995 18.968C6.7 19.32 6.297 19.574 5.918 19.76C5.531 19.95 5.114 20.093 4.743 20.2C4.29701 20.3269 3.84343 20.4254 3.385 20.495L3.361 20.498L3.353 20.499H3.35C3.23578 20.5143 3.11957 20.5031 3.01039 20.4662C2.90122 20.4293 2.80201 20.3677 2.72047 20.2863C2.63894 20.2048 2.57726 20.1057 2.54024 19.9966C2.50322 19.8874 2.49185 19.7712 2.507 19.657V19.654L2.508 19.646L2.512 19.622C2.53034 19.4917 2.55235 19.362 2.578 19.233C2.625 18.982 2.699 18.637 2.806 18.262C2.91819 17.8574 3.06507 17.4633 3.245 17.084C3.43 16.704 3.684 16.302 4.035 16.005ZM14.687 8.22C14.5464 8.07955 14.3558 8.00066 14.157 8.00066C13.9583 8.00066 13.7676 8.07955 13.627 8.22L12.92 8.927C12.7875 9.06917 12.7154 9.25722 12.7188 9.45152C12.7223 9.64582 12.801 9.83121 12.9384 9.96862C13.0758 10.106 13.2612 10.1847 13.4555 10.1882C13.6498 10.1916 13.8378 10.1195 13.98 9.987L14.687 9.28C14.8275 9.13937 14.9063 8.94875 14.9063 8.75C14.9063 8.55125 14.8275 8.36063 14.687 8.22Z" fill="white"/>
</svg>
