<svg width="46" height="51" viewBox="0 0 46 51" fill="none" xmlns="http://www.w3.org/2000/svg">
<path d="M4.36719 50.2847C3.42969 50.6435 2.55125 50.5538 1.73188 50.0156C0.9125 49.4774 0.501875 48.7374 0.5 47.7955V35.8202C0.5 34.9232 0.723125 34.0711 1.16937 33.2637C1.61562 32.4564 2.23625 31.8061 3.03125 31.3127C4.44588 30.4206 6.30689 31.3393 6.53447 32.9962C6.82791 35.1326 7.1958 37.0607 7.63812 38.7804C7.84072 39.5681 8.08161 40.3876 8.36079 41.2388C9.55045 44.8662 7.93975 48.9392 4.36719 50.2847ZM16.8125 46.3827C16.1562 46.3827 15.5937 46.1808 15.125 45.7772C14.6562 45.3735 14.3047 44.8802 14.0703 44.2971C12.8047 41.2024 11.8672 38.3436 11.2578 35.7207C10.6484 33.0978 10.3437 30.0811 10.3437 26.6706C10.3437 21.6473 11.2812 16.8599 13.1562 12.3084C15.0312 7.75694 17.5859 4.06749 20.8203 1.24008C21.1016 0.970978 21.4419 0.779913 21.8412 0.666888C22.2406 0.553863 22.6269 0.498248 23 0.500042C23.3731 0.501836 23.7603 0.558348 24.1616 0.669579C24.5628 0.78081 24.9022 0.970978 25.1797 1.24008C28.4141 4.0657 30.9687 7.75515 32.8437 12.3084C34.7187 16.8617 35.6562 21.6491 35.6562 26.6706C35.6562 30.1242 35.3516 33.1516 34.7422 35.753C34.1328 38.3543 33.1953 41.2024 31.9297 44.2971C31.6953 44.8802 31.3437 45.3735 30.875 45.7772C30.4062 46.1808 29.8437 46.3827 29.1875 46.3827H16.8125ZM23 27.5452C24.5469 27.5452 25.8716 27.0187 26.9741 25.9656C28.0766 24.9125 28.6269 23.645 28.625 22.1631C28.6231 20.6812 28.0728 19.4146 26.9741 18.3633C25.8753 17.312 24.5506 16.7846 23 16.781C21.4494 16.7774 20.1256 17.3048 19.0287 18.3633C17.9319 19.4218 17.3806 20.6884 17.375 22.1631C17.3694 23.6378 17.9206 24.9053 19.0287 25.9656C20.1369 27.0259 21.4606 27.5524 23 27.5452ZM41.6328 50.2847C38.0608 48.9394 36.4513 44.8664 37.6415 41.2397C37.9209 40.3881 38.162 39.5684 38.3647 38.7804C38.807 37.0607 39.1745 35.1327 39.4671 32.9963C39.694 31.3398 41.5545 30.4208 42.9687 31.3127C43.7656 31.8061 44.3872 32.4564 44.8334 33.2637C45.2797 34.0711 45.5019 34.9232 45.5 35.8202V47.7955C45.5 48.7374 45.0903 49.4774 44.2709 50.0156C43.4515 50.5538 42.5722 50.6435 41.6328 50.2847Z" fill="#FF3CAC"/>
</svg>
