<svg width="19" height="19" viewBox="0 0 19 19" fill="none" xmlns="http://www.w3.org/2000/svg">
<path d="M0.404541 7.00509C0.404541 5.28021 0.404541 4.41868 0.940481 3.88274C1.47642 3.3468 2.33795 3.3468 4.06283 3.3468H15.0377C16.7626 3.3468 17.6241 3.3468 18.1601 3.88274C18.696 4.41868 18.696 5.28021 18.696 7.00509C18.696 7.43586 18.696 7.6517 18.5625 7.78614C18.428 7.91967 18.2113 7.91967 17.7814 7.91967H1.31911C0.88835 7.91967 0.672511 7.91967 0.538069 7.78614C0.404541 7.6517 0.404541 7.43494 0.404541 7.00509ZM0.404541 15.2362C0.404541 16.9611 0.404541 17.8227 0.940481 18.3586C1.47642 18.8945 2.33795 18.8945 4.06283 18.8945H15.0377C16.7626 18.8945 17.6241 18.8945 18.1601 18.3586C18.696 17.8227 18.696 16.9611 18.696 15.2362V10.6634C18.696 10.2326 18.696 10.0168 18.5625 9.88234C18.428 9.74881 18.2113 9.74881 17.7814 9.74881H1.31911C0.88835 9.74881 0.672511 9.74881 0.538069 9.88234C0.404541 10.0168 0.404541 10.2335 0.404541 10.6634V15.2362Z" fill="#FF3CAC"/>
<path d="M4.97742 1.51758V4.2613M14.1231 1.51758V4.2613" stroke="#FF3CAC" stroke-width="1.82915" stroke-linecap="round"/>
</svg>
