<svg width="41" height="46" viewBox="0 0 41 46" fill="none" xmlns="http://www.w3.org/2000/svg">
<path d="M33.5982 8.94629C31.4018 3.97168 26.3661 0.5 20.5 0.5C14.6339 0.5 9.59822 3.97168 7.40179 8.94629C5.9375 9.06934 4.78571 10.2734 4.78571 11.75V17.375C4.78571 18.8516 5.9375 20.0557 7.40179 20.1787C9.59822 25.1533 14.6339 28.625 20.5 28.625C26.3661 28.625 31.4018 25.1533 33.5982 20.1787C35.0625 20.0557 36.2143 18.8516 36.2143 17.375V11.75C36.2143 10.2734 35.0625 9.06934 33.5982 8.94629ZM30.5 13.1562V14.5625C30.5 19.2207 26.6607 23 21.9286 23H19.0714C14.3393 23 10.5 19.2207 10.5 14.5625V13.1562C10.5 10.8271 12.4196 8.9375 14.7857 8.9375H26.2143C28.5804 8.9375 30.5 10.8271 30.5 13.1562ZM17.4018 14.7998L16.8661 12.9365C16.7857 12.6465 16.5179 12.4531 16.2143 12.4531C15.9107 12.4531 15.6429 12.6465 15.5625 12.9365L15.0268 14.7998L13.1339 15.3271C12.8393 15.4062 12.6429 15.6699 12.6429 15.9688C12.6429 16.2676 12.8393 16.5312 13.1339 16.6104L15.0268 17.1377L15.5625 19.001C15.6429 19.291 15.9107 19.4844 16.2143 19.4844C16.5179 19.4844 16.7857 19.291 16.8661 19.001L17.4018 17.1377L19.2946 16.6104C19.5893 16.5312 19.7857 16.2676 19.7857 15.9688C19.7857 15.6699 19.5893 15.4062 19.2946 15.3271L17.4018 14.7998ZM10.5625 28.3174C4.66964 30.6113 0.5 36.2715 0.5 42.8896C0.5 44.3311 1.6875 45.5 3.15179 45.5H11.9286V39.875C11.9286 38.3193 13.2054 37.0625 14.7857 37.0625H26.2143C27.7946 37.0625 29.0714 38.3193 29.0714 39.875V45.5H37.8482C39.3125 45.5 40.5 44.3311 40.5 42.8896C40.5 36.2715 36.3304 30.6113 30.4375 28.3174C27.6339 30.2773 24.2054 31.4375 20.5 31.4375C16.7946 31.4375 13.3661 30.2773 10.5625 28.3174ZM16.2143 39.875C15.4286 39.875 14.7857 40.5078 14.7857 41.2812V45.5H17.6429V41.2812C17.6429 40.5078 17 39.875 16.2143 39.875ZM24.7857 42.6875C25.1646 42.6875 25.528 42.5393 25.7959 42.2756C26.0638 42.0119 26.2143 41.6542 26.2143 41.2812C26.2143 40.9083 26.0638 40.5506 25.7959 40.2869C25.528 40.0232 25.1646 39.875 24.7857 39.875C24.4068 39.875 24.0435 40.0232 23.7756 40.2869C23.5077 40.5506 23.3571 40.9083 23.3571 41.2812C23.3571 41.6542 23.5077 42.0119 23.7756 42.2756C24.0435 42.5393 24.4068 42.6875 24.7857 42.6875Z" fill="#FF3CAC"/>
</svg>
