<svg width="19" height="20" viewBox="0 0 19 20" fill="none" xmlns="http://www.w3.org/2000/svg">
<path d="M17.2499 11.2891H10.7916V17.7475C10.7916 18.09 10.6555 18.4186 10.4133 18.6608C10.171 18.9031 9.84249 19.0391 9.49992 19.0391C9.15735 19.0391 8.82881 18.9031 8.58657 18.6608C8.34434 18.4186 8.20825 18.09 8.20825 17.7475V11.2891H1.74992C1.40735 11.2891 1.07881 11.1531 0.836573 10.9108C0.594338 10.6686 0.458252 10.34 0.458252 9.99748C0.458252 9.65491 0.594338 9.32637 0.836573 9.08413C1.07881 8.8419 1.40735 8.70581 1.74992 8.70581H8.20825V2.24748C8.20825 1.90491 8.34434 1.57637 8.58657 1.33413C8.82881 1.0919 9.15735 0.955811 9.49992 0.955811C9.84249 0.955811 10.171 1.0919 10.4133 1.33413C10.6555 1.57637 10.7916 1.90491 10.7916 2.24748V8.70581H17.2499C17.5925 8.70581 17.921 8.8419 18.1633 9.08413C18.4055 9.32637 18.5416 9.65491 18.5416 9.99748C18.5416 10.34 18.4055 10.6686 18.1633 10.9108C17.921 11.1531 17.5925 11.2891 17.2499 11.2891Z" fill="white"/>
</svg>
