<svg width="169" height="45" viewBox="0 0 169 45" fill="none" xmlns="http://www.w3.org/2000/svg">
<g clip-path="url(#clip0_49_530)">
<path d="M6.61999 18.4275C7.43736 15.1457 9.2216 12.1851 11.7415 9.92934C14.2613 7.67359 17.4006 6.22669 20.7525 5.77619C24.1044 5.32568 27.5144 5.89233 30.5404 7.40269C33.5665 8.91306 36.0691 11.2975 37.724 14.247C36.221 14.3257 34.6685 14.6228 33.1182 15.0323C30.3687 15.759 27.2052 16.9628 23.6525 18.5153L23.6435 18.4972L21.596 19.4288C17.3007 21.3795 13.8627 22.7272 11.156 23.4427C8.35699 24.183 6.88099 24.0952 6.17674 23.8365C6.09604 22.8024 6.1096 21.7631 6.21724 20.7315C4.35874 21.0105 3.23374 22.0185 2.88274 22.9365C2.78104 23.1817 2.73631 23.4468 2.7519 23.7118C2.76749 23.9769 2.84299 24.2349 2.97274 24.4665C3.24499 24.9615 3.83899 25.524 4.97299 25.9447C6.34549 26.4532 8.49874 26.3902 11.5452 25.614C14.549 24.849 18.2367 23.4405 22.5545 21.4763C26.9217 19.4917 30.7422 18.0202 33.9282 17.2057C37.0715 16.4025 39.7872 16.1888 41.8302 16.9448C43.3152 17.496 44.402 18.3533 44.9982 19.44C45.6012 20.538 45.6372 21.7575 45.2232 22.8578C44.456 24.8873 42.242 26.3902 39.38 26.577C38.5616 29.8578 36.7768 32.8173 34.2569 35.072C31.7369 37.3267 28.598 38.7727 25.2467 39.2227C21.8954 39.6727 18.4862 39.1059 15.4607 37.5958C12.4353 36.0856 9.93308 33.7018 8.27824 30.753C9.77899 30.6742 11.3315 30.3772 12.8817 29.9678C15.6312 29.241 18.7947 28.0372 22.3475 26.4847L22.3565 26.5028L24.404 25.5712C28.6992 23.6205 32.1372 22.2728 34.844 21.5573C37.643 20.817 39.119 20.9048 39.8232 21.1635C39.9043 22.1998 39.8908 23.2414 39.7827 24.2752C41.6502 24.0007 42.7685 22.986 43.1172 22.0613C43.2171 21.8141 43.2609 21.5478 43.2453 21.2816C43.2298 21.0155 43.1553 20.7561 43.0272 20.5223C42.755 20.0273 42.1677 19.4692 41.0495 19.0553C39.677 18.5468 37.526 18.6098 34.484 19.386C31.487 20.151 27.8015 21.5618 23.486 23.526C19.1165 25.5105 15.2915 26.982 12.101 27.7965C8.95324 28.5975 6.23299 28.809 4.18999 28.0552C2.69374 27.4995 1.60249 26.6377 1.00174 25.551C0.714238 25.0328 0.545331 24.4572 0.5072 23.8658C0.46907 23.2744 0.562666 22.6819 0.781239 22.131C1.55524 20.1105 3.76924 18.621 6.61999 18.4275Z" fill="#FF3CAC"/>
</g>
<path d="M63.9903 18.89C63.4477 18.274 62.8023 17.79 62.0543 17.438C61.3063 17.0713 60.5583 16.888 59.8103 16.888C59.0917 16.888 58.417 17.0273 57.7863 17.306C57.1703 17.57 56.6203 17.9513 56.1363 18.45C55.667 18.934 55.3003 19.4987 55.0363 20.144C54.7723 20.7893 54.6403 21.486 54.6403 22.234C54.6403 22.982 54.7723 23.686 55.0363 24.346C55.3003 24.9913 55.667 25.556 56.1363 26.04C56.6203 26.524 57.1703 26.9053 57.7863 27.184C58.417 27.4627 59.0917 27.602 59.8103 27.602C60.5583 27.602 61.299 27.4407 62.0323 27.118C62.7657 26.7807 63.4183 26.326 63.9903 25.754L65.7283 27.58C65.215 28.108 64.621 28.57 63.9463 28.966C63.2863 29.362 62.5897 29.67 61.8563 29.89C61.1377 30.0953 60.4043 30.198 59.6563 30.198C58.527 30.198 57.471 30 56.4883 29.604C55.5203 29.1933 54.6697 28.6287 53.9363 27.91C53.2177 27.1913 52.653 26.348 52.2423 25.38C51.8317 24.412 51.6263 23.378 51.6263 22.278C51.6263 21.1633 51.8317 20.1367 52.2423 19.198C52.653 18.2447 53.2323 17.4087 53.9803 16.69C54.7283 15.9713 55.5863 15.414 56.5543 15.018C57.537 14.622 58.6077 14.424 59.7663 14.424C60.5143 14.424 61.2403 14.5267 61.9443 14.732C62.663 14.9227 63.345 15.2013 63.9903 15.568C64.6357 15.92 65.2077 16.3527 65.7063 16.866L63.9903 18.89ZM72.8919 18.164C74.1092 18.164 75.1799 18.4133 76.1039 18.912C77.0426 19.4107 77.7686 20.1073 78.2819 21.002C78.8099 21.8967 79.0739 22.938 79.0739 24.126C79.0739 25.314 78.8099 26.3553 78.2819 27.25C77.7686 28.1447 77.0426 28.8487 76.1039 29.362C75.1799 29.8607 74.1092 30.11 72.8919 30.11C71.6599 30.11 70.5746 29.8607 69.6359 29.362C68.6972 28.8487 67.9639 28.1447 67.4359 27.25C66.9226 26.3553 66.6659 25.314 66.6659 24.126C66.6659 22.938 66.9226 21.8967 67.4359 21.002C67.9639 20.1073 68.6972 19.4107 69.6359 18.912C70.5746 18.4133 71.6599 18.164 72.8919 18.164ZM72.8919 20.474C72.2319 20.474 71.6452 20.6353 71.1319 20.958C70.6332 21.266 70.2446 21.6987 69.9659 22.256C69.6872 22.7987 69.5479 23.4293 69.5479 24.148C69.5479 24.8813 69.6872 25.5267 69.9659 26.084C70.2446 26.6413 70.6332 27.074 71.1319 27.382C71.6452 27.69 72.2319 27.844 72.8919 27.844C73.5372 27.844 74.1092 27.69 74.6079 27.382C75.1066 27.074 75.4952 26.6413 75.7739 26.084C76.0526 25.5267 76.1919 24.8813 76.1919 24.148C76.1919 23.4293 76.0526 22.7987 75.7739 22.256C75.4952 21.6987 75.1066 21.266 74.6079 20.958C74.1092 20.6353 73.5372 20.474 72.8919 20.474ZM88.5324 21.332C87.9604 20.9947 87.3664 20.738 86.7504 20.562C86.1344 20.3713 85.577 20.276 85.0784 20.276C84.609 20.276 84.2277 20.364 83.9344 20.54C83.641 20.7013 83.4944 20.98 83.4944 21.376C83.4944 21.7133 83.641 21.9847 83.9344 22.19C84.2424 22.3953 84.631 22.5713 85.1004 22.718C85.5697 22.85 86.0684 22.9967 86.5964 23.158C87.1244 23.3193 87.623 23.532 88.0924 23.796C88.5764 24.06 88.965 24.412 89.2584 24.852C89.5664 25.292 89.7204 25.8713 89.7204 26.59C89.7204 27.382 89.5077 28.042 89.0824 28.57C88.657 29.0833 88.0924 29.472 87.3884 29.736C86.6844 29.9853 85.9144 30.11 85.0784 30.11C84.1984 30.11 83.3184 29.9707 82.4384 29.692C81.573 29.4133 80.8324 29.0027 80.2164 28.46L81.2064 26.546C81.749 27.0153 82.387 27.382 83.1204 27.646C83.8684 27.8953 84.5577 28.02 85.1884 28.02C85.5257 28.02 85.8264 27.976 86.0904 27.888C86.3544 27.8 86.5597 27.6753 86.7064 27.514C86.853 27.338 86.9264 27.1107 86.9264 26.832C86.9264 26.4507 86.7797 26.1573 86.4864 25.952C86.193 25.732 85.8117 25.5487 85.3424 25.402C84.8877 25.2407 84.3964 25.0867 83.8684 24.94C83.3404 24.7787 82.8417 24.5733 82.3724 24.324C81.9177 24.06 81.5437 23.7153 81.2504 23.29C80.957 22.8647 80.8104 22.3 80.8104 21.596C80.8104 20.804 81.0157 20.1513 81.4264 19.638C81.837 19.1247 82.3797 18.7507 83.0544 18.516C83.729 18.2667 84.4624 18.142 85.2544 18.142C86.017 18.142 86.7797 18.252 87.5424 18.472C88.305 18.6773 88.9797 18.9707 89.5664 19.352L88.5324 21.332ZM100.576 23.444C100.576 22.5787 100.348 21.904 99.8936 21.42C99.4536 20.936 98.8303 20.694 98.0236 20.694C97.0996 20.7087 96.3663 21.0533 95.8236 21.728C95.2956 22.388 95.0316 23.2167 95.0316 24.214H94.2616C94.2616 22.7913 94.4596 21.64 94.8556 20.76C95.2516 19.8653 95.8163 19.2127 96.5496 18.802C97.2976 18.3767 98.1703 18.164 99.1676 18.164C100.062 18.164 100.825 18.3473 101.456 18.714C102.101 19.0807 102.592 19.6013 102.93 20.276C103.282 20.936 103.458 21.7353 103.458 22.674V30H100.576V23.444ZM109.002 23.444C109.002 22.5787 108.774 21.904 108.32 21.42C107.865 20.936 107.234 20.694 106.428 20.694C105.504 20.7087 104.778 21.0533 104.25 21.728C103.722 22.388 103.458 23.2167 103.458 24.214H102.688C102.688 22.7913 102.886 21.64 103.282 20.76C103.678 19.8653 104.242 19.2127 104.976 18.802C105.709 18.3767 106.582 18.164 107.594 18.164C108.474 18.164 109.229 18.3473 109.86 18.714C110.505 19.0807 111.004 19.6013 111.356 20.276C111.708 20.936 111.884 21.7353 111.884 22.674V30H109.002V23.444ZM92.1716 18.274H95.0316V30H92.1716V18.274ZM120.222 18.164C121.439 18.164 122.51 18.4133 123.434 18.912C124.373 19.4107 125.099 20.1073 125.612 21.002C126.14 21.8967 126.404 22.938 126.404 24.126C126.404 25.314 126.14 26.3553 125.612 27.25C125.099 28.1447 124.373 28.8487 123.434 29.362C122.51 29.8607 121.439 30.11 120.222 30.11C118.99 30.11 117.905 29.8607 116.966 29.362C116.027 28.8487 115.294 28.1447 114.766 27.25C114.253 26.3553 113.996 25.314 113.996 24.126C113.996 22.938 114.253 21.8967 114.766 21.002C115.294 20.1073 116.027 19.4107 116.966 18.912C117.905 18.4133 118.99 18.164 120.222 18.164ZM120.222 20.474C119.562 20.474 118.975 20.6353 118.462 20.958C117.963 21.266 117.575 21.6987 117.296 22.256C117.017 22.7987 116.878 23.4293 116.878 24.148C116.878 24.8813 117.017 25.5267 117.296 26.084C117.575 26.6413 117.963 27.074 118.462 27.382C118.975 27.69 119.562 27.844 120.222 27.844C120.867 27.844 121.439 27.69 121.938 27.382C122.437 27.074 122.825 26.6413 123.104 26.084C123.383 25.5267 123.522 24.8813 123.522 24.148C123.522 23.4293 123.383 22.7987 123.104 22.256C122.825 21.6987 122.437 21.266 121.938 20.958C121.439 20.6353 120.867 20.474 120.222 20.474ZM125.757 14.6H138.319V17.086H133.523V30H130.553V17.086H125.757V14.6ZM146.452 20.76C145.63 20.7013 144.919 20.826 144.318 21.134C143.716 21.4273 143.254 21.8527 142.932 22.41C142.609 22.9673 142.448 23.6053 142.448 24.324L141.678 24.236C141.678 22.9307 141.868 21.8307 142.25 20.936C142.631 20.0267 143.181 19.3373 143.9 18.868C144.618 18.3987 145.469 18.164 146.452 18.164V20.76ZM139.588 18.274H142.448V30H139.588V18.274ZM148.461 18.274H151.321V30H148.461V18.274ZM149.869 13.28C150.338 13.28 150.727 13.434 151.035 13.742C151.343 14.05 151.497 14.4387 151.497 14.908C151.497 15.3627 151.343 15.7513 151.035 16.074C150.727 16.382 150.338 16.536 149.869 16.536C149.414 16.536 149.033 16.382 148.725 16.074C148.417 15.7513 148.263 15.3627 148.263 14.908C148.263 14.4387 148.417 14.05 148.725 13.742C149.033 13.434 149.414 13.28 149.869 13.28ZM161.793 18.164C162.908 18.164 163.883 18.4133 164.719 18.912C165.555 19.4107 166.2 20.1147 166.655 21.024C167.124 21.9187 167.359 22.9673 167.359 24.17C167.359 25.3433 167.132 26.3773 166.677 27.272C166.222 28.152 165.577 28.8487 164.741 29.362C163.92 29.8607 162.952 30.11 161.837 30.11C160.796 30.11 159.901 29.8753 159.153 29.406C158.405 28.922 157.833 28.2327 157.437 27.338C157.041 26.4433 156.843 25.3873 156.843 24.17C156.843 22.9087 157.034 21.8307 157.415 20.936C157.811 20.0413 158.383 19.3593 159.131 18.89C159.879 18.406 160.766 18.164 161.793 18.164ZM161.155 20.43C160.51 20.43 159.93 20.5913 159.417 20.914C158.918 21.222 158.53 21.6547 158.251 22.212C157.972 22.7547 157.833 23.3853 157.833 24.104C157.833 24.8227 157.972 25.4607 158.251 26.018C158.53 26.5753 158.918 27.008 159.417 27.316C159.93 27.624 160.51 27.778 161.155 27.778C161.815 27.778 162.387 27.624 162.871 27.316C163.37 26.9933 163.758 26.5607 164.037 26.018C164.316 25.4607 164.455 24.8227 164.455 24.104C164.455 23.3853 164.316 22.7547 164.037 22.212C163.758 21.6547 163.37 21.222 162.871 20.914C162.387 20.5913 161.815 20.43 161.155 20.43ZM154.973 18.274H157.833V34.268H154.973V18.274Z" fill="white"/>
<defs>
<clipPath id="clip0_49_530">
<rect width="45" height="45" fill="white" transform="translate(0.5)"/>
</clipPath>
</defs>
</svg>
