<svg width="17" height="16" viewBox="0 0 17 16" fill="none" xmlns="http://www.w3.org/2000/svg">
<path d="M8.23409 12.7576L4.43861 15.044C4.27094 15.1507 4.09564 15.1964 3.91273 15.1812C3.72981 15.1659 3.56976 15.105 3.43258 14.9983C3.29539 14.8916 3.18869 14.7583 3.11248 14.5986C3.03626 14.4388 3.02102 14.2596 3.06675 14.0608L4.07278 9.73946L0.711724 6.83569C0.559295 6.69851 0.46418 6.54212 0.426377 6.36652C0.388575 6.19092 0.399855 6.01959 0.460216 5.85253C0.520578 5.68547 0.612035 5.54828 0.734588 5.44097C0.857141 5.33366 1.02481 5.26507 1.2376 5.23519L5.67328 4.8465L7.38811 0.776649C7.46432 0.593735 7.5826 0.456548 7.74296 0.365091C7.90332 0.273634 8.06702 0.227905 8.23409 0.227905C8.40115 0.227905 8.56486 0.273634 8.72521 0.365091C8.88557 0.456548 9.00385 0.593735 9.08007 0.776649L10.7949 4.8465L15.2306 5.23519C15.444 5.26568 15.6116 5.33427 15.7336 5.44097C15.8555 5.54767 15.947 5.68486 16.008 5.85253C16.0689 6.0202 16.0805 6.19184 16.0427 6.36743C16.0049 6.54303 15.9095 6.69912 15.7564 6.83569L12.3954 9.73946L13.4014 14.0608C13.4472 14.259 13.4319 14.4382 13.3557 14.5986C13.2795 14.7589 13.1728 14.8922 13.0356 14.9983C12.8984 15.1043 12.7384 15.1653 12.5554 15.1812C12.3725 15.197 12.1972 15.1513 12.0296 15.044L8.23409 12.7576Z" fill="#FF3CAC"/>
</svg>
